<?xml version="1.0" encoding="UTF-8"?>
<!DOCTYPE svg PUBLIC "-//W3C//DTD SVG 1.1//EN" "http://www.w3.org/Graphics/SVG/1.1/DTD/svg11.dtd">
<!-- Creator: CorelDRAW 2019 (64 Bit) -->
<svg xmlns="http://www.w3.org/2000/svg" xml:space="preserve" width="8.4666mm" height="3.002mm" version="1.1" style="shape-rendering:geometricPrecision; text-rendering:geometricPrecision; image-rendering:optimizeQuality; fill-rule:evenodd; clip-rule:evenodd"
viewBox="0 0 3503.24 1242.14"
 xmlns:xlink="http://www.w3.org/1999/xlink">
 <defs>
  <style type="text/css">
   <![CDATA[
    .fil0 {fill:#FEFEFE}
    .fil1 {fill:#0F4C81}
    .fil2 {fill:#0F4C81;fill-rule:nonzero}
   ]]>
  </style>
 </defs>
 <g id="Camada_x0020_1">
  <metadata id="CorelCorpID_0Corel-Layer"/>
  <g id="_1340626555600">
   <g>
    <path class="fil0" d="M3480.32 1017.88l-150.36 0c-12.66,0 -22.96,-10.3 -22.96,-22.96l0 -667.12c0,-12.62 10.3,-22.92 22.96,-22.92l150.36 0c12.62,0 22.92,10.3 22.92,22.92l0 667.12c0,12.66 -10.3,22.96 -22.92,22.96z"/>
    <path class="fil0" d="M2928.14 473.02l-271.56 0c-12.62,0 -22.92,-10.3 -22.92,-22.96l0 -122.27c0,-12.62 10.3,-22.92 22.92,-22.92l511.84 0c12.62,0 22.92,10.3 22.92,22.92l0 84.16c0,5.05 -1.41,9.39 -4.39,13.49l-308.01 424.57 290.43 0c12.62,0 22.92,10.3 22.92,22.96l0 121.94c0,12.66 -10.3,22.96 -22.92,22.96l-537.41 0c-12.62,0 -22.92,-10.3 -22.92,-22.96l0 -86.52c0,-5.17 1.45,-9.6 4.55,-13.74l314.55 -421.63z"/>
    <path class="fil0" d="M2244.55 473.02l0 102.57 195.26 0c12.62,0 22.92,10.34 22.92,22.96l0 121.77c0,12.66 -10.3,22.96 -22.92,22.96l-195.26 0 0 106.71 226.83 0c12.66,0 22.96,10.3 22.96,22.96l0 121.94c0,12.66 -10.3,22.96 -22.96,22.96l-400.16 0c-12.66,0 -22.96,-10.3 -22.96,-22.96l0 -667.12c0,-12.62 10.3,-22.92 22.96,-22.92l384.77 0c12.62,0 22.92,10.3 22.92,22.92l0 122.27c0,12.66 -10.3,22.96 -22.92,22.96l-211.44 0z"/>
    <path class="fil0" d="M1737.3 849.64l0 -91.9 -110.48 0c-12.62,0 -22.92,-10.3 -22.92,-22.92l0 -120.08c0,-12.62 10.3,-22.92 22.92,-22.92l283.81 0c12.62,0 22.92,10.3 22.92,22.92l0 335.57c0,8.44 -4.18,15.68 -11.5,19.86 -76.96,44.31 -166.54,59.29 -254.39,59.29 -99.93,0 -196.13,-24.91 -269.66,-95.5 -72.95,-70.01 -99.8,-162.94 -99.8,-261.88 0,-105.18 32.73,-198.65 108.37,-272.72 78.04,-76.38 178.17,-105.8 285.83,-105.8 65.75,0 132.7,8.23 194.76,30.78 9.23,3.35 15.1,11.71 15.1,21.56l0 141.01c0,8.4 -4.18,15.68 -11.5,19.86 -7.28,4.22 -15.64,4.22 -22.96,-0.04 -53.62,-31.12 -115.98,-41.5 -177.3,-41.5 -52.71,0 -98.81,15.56 -135.8,53.71 -38.89,40.05 -52.47,91.48 -52.47,146.14 0,51.31 10.39,104.81 46.55,143.45 33.56,35.83 77.5,48.95 125.87,48.95 19.53,0 42.83,-1.53 62.65,-7.86z"/>
   </g>
   <path class="fil0" d="M479.15 1242.14c0,0 -347.07,-390.06 -426.56,-544.73l-0.04 -0.41 0.04 0.33c-33.64,-65.46 -52.59,-139.65 -52.59,-218.14 0,-264.23 214.95,-479.19 479.15,-479.19 185.74,0 347.11,106.17 426.6,261.05 33.64,65.46 52.59,139.61 52.59,218.14 0,264.23 -479.19,762.87 -479.19,762.87l0 0.08 0 0zm361.18 -721.87c29.96,-47.67 49.11,-98.31 58.71,-150.41 -9.64,51.85 -28.8,102.12 -58.71,150.41z"/>
   <circle class="fil1" cx="479.17" cy="375.29" r="144.11"/>
   <path class="fil0" d="M968.27 579.57c0.04,52.8 10.43,170.18 -2.07,194.51 -2.65,5.13 -5.96,9.93 -9.64,14.36 -13.7,16.39 -38.48,34.67 -59.62,18.29 -3.06,-2.4 -5.63,-5.34 -7.57,-8.73 -6.83,-12 -17.01,-82.55 -19.9,-98.93 -4.47,-24.95 -8.94,-58.67 -16.26,-82.51 -3.56,-11.59 -15.97,-38.52 -26.15,-56.27 -4.34,2.07 -8.65,4.18 -12.41,5.96 -17.67,8.32 -35.29,16.88 -52.84,25.49 -22.55,11.09 -50.11,23.46 -72.95,36.25 0.04,8.03 0.91,18.08 1.16,24.08 0.5,15.31 0.95,34.88 -5.13,49.11 -9.81,22.92 -41.87,56.27 -69.6,40.09 -17.09,-10.01 -20.73,-47.83 -26.65,-74.35 -20.48,5.59 -44.07,8.98 -54.62,-9.52 -8.28,-14.48 -1.99,-27.72 7.41,-38.56 3.93,-4.51 8.15,-8.85 12.41,-13.08 -19.86,-18.58 -50.89,-41.05 -50.85,-60.91 0.08,-32.11 45.1,-42.87 69.89,-39.68 15.31,1.94 31.94,12.29 44.89,20.52 5.05,3.23 13.28,9.1 20.15,13.2 22.59,-13.2 47.25,-30.66 68.23,-44.48 16.34,-10.76 32.65,-21.6 48.78,-32.61 3.43,-2.36 7.45,-4.97 11.42,-7.7 -10.14,-17.75 -27.06,-42.12 -35.21,-51.06 -16.84,-18.41 -43.61,-39.39 -62.89,-55.86 -12.62,-10.8 -68.27,-55.4 -75.14,-67.4 -1.9,-3.35 -3.19,-7.08 -3.68,-10.92 -3.35,-26.56 24.99,-38.6 46.01,-42.08 5.67,-0.91 11.5,-1.37 17.25,-1.03 27.31,1.61 123.22,70.05 168.69,96.91 4.26,-2.69 8.52,-5.25 12.41,-7.61 13.49,-8.19 33.47,-21.43 49.74,-17.01 21.1,5.75 45.97,50.27 36.95,70.8 -0.83,1.9 -2.07,3.85 -3.6,5.75 29.46,-17.5 58.13,-36.29 88.3,-53.13 24.16,-13.49 94.22,-29.01 112.13,2.44 17.96,31.45 -30.91,83.91 -54.78,97.9 -29.79,17.42 -60.53,32.61 -90.53,49.11 2.4,-0.37 4.63,-0.46 6.74,-0.21 22.3,2.65 48,46.67 42.25,67.82 -4.47,16.43 -25.9,26.69 -39.85,34.22 -4.01,2.15 -8.4,4.51 -12.87,6.83z"/>
   <path class="fil2" d="M941.66 761.51c7.16,-13.94 -2.69,-195.84 -0.29,-199.98 9.52,-3.52 51.72,-25.49 53.05,-30.25 1.28,-4.76 -14.85,-32.69 -18.91,-33.18 -4.1,-0.5 -28.14,14.32 -34.38,19.07 -4.1,-1.03 0.83,-60.99 6.25,-64.13 5.46,-3.1 63.97,-33.23 101.21,-55.03 31.24,-18.29 47.25,-56.15 44.81,-60.41 -2.44,-4.3 -43.16,-9.68 -74.77,7.94 -37.74,21.06 -93.35,56.19 -98.81,59.29 -5.42,3.1 -59.62,-23.05 -58.42,-27.14 7.28,-2.98 32.19,-16.18 33.85,-19.94 1.66,-3.77 -14.23,-31.82 -18.99,-33.1 -4.76,-1.32 -45.14,23.92 -52.96,30.33 -4.8,-0.04 -156.57,-100.79 -172.17,-101.71 -15.64,-0.91 -36.99,7.74 -34.05,12.83 2.9,5.13 115.9,98.11 134.39,118.34 18.54,20.23 50.19,73.2 48.83,78.2 -1.37,5.01 -151.56,102.74 -159.76,106.38 -8.15,3.6 -51.22,-33.93 -71.21,-36.49 -19.99,-2.61 -38.77,7.57 -38.77,12.37 0,4.76 65.46,58.3 59.96,63.72 -4.22,4.18 -34.3,32.07 -32.56,35.09 1.74,3.06 41.05,-8.73 46.8,-10.26 7.45,-1.94 20.36,81.6 24.5,84 4.1,2.44 22.39,-8.57 30.33,-27.1 7.9,-18.58 -2.61,-74.69 4.68,-79.9 7.24,-5.21 167.66,-85.07 172.71,-83.71 5.01,1.37 34.55,55.53 42.62,81.76 8.07,26.19 30.87,170.76 33.76,175.85 2.94,5.09 21.23,-8.94 28.34,-22.84z"/>
  </g>
 </g>
</svg>
